<?xml version="1.0" standalone="no"?>
<!DOCTYPE svg PUBLIC "-//W3C//DTD SVG 20010904//EN"
 "http://www.w3.org/TR/2001/REC-SVG-20010904/DTD/svg10.dtd">
<svg version="1.0" xmlns="http://www.w3.org/2000/svg"
 width="700.000000pt" height="700.000000pt" viewBox="0 0 700.000000 700.000000"
 preserveAspectRatio="xMidYMid meet">
<metadata>
Created by potrace 1.11, written by Peter Selinger 2001-2013
</metadata>
<g transform="translate(0.000000,700.000000) scale(0.100000,-0.100000)"
fill="#000000" stroke="none">
<path d="M3315 6990 c-92 -14 -120 -19 -200 -39 -141 -34 -270 -87 -420 -171
-33 -18 -62 -36 -65 -39 -3 -4 -25 -19 -48 -34 -157 -102 -372 -343 -472 -529
-98 -182 -136 -291 -186 -548 -4 -19 -9 -276 -11 -570 -2 -294 -5 -536 -6
-537 -2 -1 -29 -5 -62 -8 -33 -3 -78 -8 -100 -10 -22 -2 -80 -7 -130 -11 -49
-4 -97 -8 -105 -10 -8 -1 -23 -3 -32 -3 -17 -1 -18 -87 -18 -1651 l0 -1650 23
-1 c12 0 29 -2 37 -3 8 -2 53 -7 100 -11 47 -4 99 -8 115 -10 17 -1 71 -6 120
-9 50 -4 101 -8 115 -11 14 -2 61 -7 105 -10 86 -6 164 -13 235 -20 25 -2 77
-7 115 -10 39 -3 88 -8 110 -10 22 -2 76 -7 120 -10 44 -3 96 -8 115 -10 34
-4 105 -10 225 -20 60 -5 148 -13 217 -20 252 -26 321 -26 568 0 19 2 76 6
125 10 50 3 101 8 115 10 23 3 81 9 230 21 30 2 78 6 105 9 28 3 77 7 110 10
33 3 78 7 100 10 22 2 76 7 120 10 44 3 96 8 115 10 19 2 73 7 120 11 47 4 96
8 110 9 14 1 63 6 110 9 47 4 101 9 120 11 19 2 71 7 115 11 44 4 91 8 105 9
14 2 33 3 43 4 16 1 17 87 17 1651 0 1564 -1 1650 -17 1651 -10 0 -25 2 -33 3
-8 2 -58 6 -110 10 -155 12 -282 25 -287 29 -1 1 -3 243 -6 537 -2 294 -7 551
-11 570 -4 19 -13 68 -21 109 -53 264 -213 568 -406 768 -161 167 -350 292
-594 393 -63 26 -184 57 -330 86 -48 9 -355 12 -410 4z m440 -500 c437 -110
744 -435 841 -890 4 -19 9 -261 11 -537 l4 -502 -28 4 c-15 2 -68 6 -116 10
-49 4 -98 8 -110 10 -12 2 -61 6 -108 9 -47 3 -101 8 -120 10 -19 3 -68 8
-109 11 -87 6 -178 14 -235 20 -178 20 -315 24 -450 12 -44 -4 -105 -10 -135
-12 -30 -3 -73 -7 -95 -10 -22 -3 -71 -7 -110 -10 -38 -4 -90 -8 -115 -10 -68
-5 -191 -16 -230 -20 -19 -2 -73 -6 -120 -10 -47 -3 -98 -8 -113 -11 l-28 -4
4 502 c2 277 7 517 11 533 72 304 171 477 377 659 137 121 378 233 543 252 28
3 52 7 54 9 2 2 68 2 145 0 106 -2 165 -8 232 -25z m-180 -3193 c123 -48 183
-159 155 -284 -11 -49 -21 -66 -69 -113 l-56 -55 67 -245 c37 -135 68 -246 68
-247 0 -2 -108 -3 -239 -3 l-240 0 34 128 c19 70 50 184 69 254 31 116 32 128
17 133 -26 8 -78 65 -99 108 -59 121 11 278 143 325 40 14 113 13 150 -1z"/>
<path d="M542 832 c-30 -23 -40 -83 -18 -116 29 -46 123 -44 141 2 10 26 -11
36 -28 12 -19 -27 -61 -35 -81 -14 -25 25 -21 81 9 100 23 15 65 12 65 -6 0
-12 29 -20 35 -10 3 5 -3 18 -15 30 -25 25 -77 26 -108 2z"/>
<path d="M1093 843 c-7 -3 -13 -11 -13 -18 0 -7 -6 -16 -12 -19 -10 -5 -10 -7
0 -12 6 -3 12 -23 12 -44 0 -21 3 -45 6 -54 7 -17 54 -22 54 -6 0 6 -7 10 -15
10 -11 0 -15 12 -15 45 0 33 4 45 15 45 8 0 15 5 15 10 0 6 -6 10 -14 10 -8 0
-16 8 -18 18 -2 11 -9 17 -15 15z"/>
<path d="M1400 818 c0 -25 -3 -29 -12 -20 -18 18 -53 15 -71 -6 -23 -25 -21
-68 3 -92 22 -22 66 -27 73 -7 4 10 6 10 6 0 1 -7 8 -13 16 -13 12 0 15 16 15
85 0 69 -3 85 -15 85 -10 0 -15 -10 -15 -32z m-10 -47 c15 -30 12 -49 -11 -61
-25 -14 -49 2 -49 34 0 43 41 61 60 27z"/>
<path d="M1530 767 l0 -84 49 -1 c55 -1 68 8 77 55 8 43 -26 78 -67 69 -26 -5
-29 -3 -29 19 0 16 -6 25 -15 25 -12 0 -15 -16 -15 -83z m88 11 c30 -30 -2
-93 -36 -71 -21 13 -27 50 -12 69 15 17 32 18 48 2z"/>
<path d="M1890 765 l0 -85 66 0 c48 0 65 3 61 13 -2 8 -20 11 -49 10 -44 -3
-46 -1 -50 27 -5 30 -4 30 44 30 26 0 48 5 48 10 0 6 -8 10 -17 11 -10 1 -29
2 -43 2 -18 2 -26 9 -28 25 -2 15 1 23 10 21 35 -4 88 2 88 11 0 6 -28 10 -65
10 l-65 0 0 -85z"/>
<path d="M2140 818 c0 -25 -3 -29 -12 -20 -18 18 -53 15 -71 -6 -23 -25 -21
-68 3 -92 22 -22 66 -27 73 -7 4 10 6 10 6 0 1 -7 8 -13 16 -13 12 0 15 16 15
85 0 69 -3 85 -15 85 -10 0 -15 -10 -15 -32z m-10 -43 c15 -18 5 -64 -15 -72
-38 -14 -63 56 -27 76 23 14 27 13 42 -4z"/>
<path d="M2710 818 c0 -25 -3 -29 -12 -20 -19 19 -55 14 -72 -10 -38 -55 -5
-107 67 -106 l44 1 1 84 c1 67 -2 83 -13 83 -10 0 -15 -11 -15 -32z m-12 -40
c32 -32 -9 -96 -44 -67 -26 22 -11 79 21 79 6 0 16 -5 23 -12z"/>
<path d="M2840 765 l0 -85 53 0 c81 0 123 43 82 84 -9 9 -11 17 -5 21 15 9 12
31 -6 49 -10 11 -34 16 -70 16 l-54 0 0 -85z m107 48 c7 -19 -14 -33 -49 -33
-23 0 -28 4 -28 24 0 21 5 24 36 24 22 0 38 -6 41 -15z m-3 -59 c13 -5 24 -42
14 -45 -2 0 -22 -2 -45 -5 -43 -6 -43 -6 -43 25 0 28 3 31 29 31 16 0 36 -3
45 -6z"/>
<path d="M3333 833 c-4 -10 -11 -21 -17 -25 -8 -6 -7 -10 1 -16 6 -4 13 -30
15 -57 3 -46 5 -50 31 -53 29 -4 37 12 12 22 -10 3 -15 19 -15 46 0 29 4 40
15 40 8 0 15 5 15 10 0 6 -7 10 -15 10 -8 0 -15 6 -15 14 0 23 -19 29 -27 9z"/>
<path d="M690 744 c0 -50 3 -64 15 -64 11 0 15 12 15 44 0 37 5 48 27 64 l26
19 -41 0 -42 0 0 -63z"/>
<path d="M790 790 c-11 -11 -20 -31 -20 -45 0 -53 69 -85 105 -49 22 22 11 30
-20 14 -20 -11 -27 -11 -40 0 -26 22 -16 31 30 27 41 -3 45 -2 45 18 0 49 -64
71 -100 35z m68 -17 c2 -9 -7 -13 -28 -13 -28 0 -31 2 -20 15 15 18 41 16 48
-2z"/>
<path d="M929 790 c-23 -19 -23 -19 -3 -20 11 0 25 5 31 11 13 13 43 5 43 -10
0 -5 -18 -12 -40 -16 -27 -4 -41 -13 -45 -26 -11 -33 11 -48 69 -46 l53 1 -5
51 c-2 27 -9 56 -14 63 -15 18 -63 15 -89 -8z m71 -64 c0 -18 -39 -31 -52 -18
-15 15 0 32 28 32 14 0 24 -6 24 -14z"/>
<path d="M1180 788 c-25 -28 -26 -62 0 -88 24 -24 63 -26 84 -4 25 24 9 35
-24 16 -27 -15 -32 -15 -40 -2 -13 21 -12 31 3 29 6 -1 29 -1 49 0 31 1 36 4
31 19 -19 53 -68 68 -103 30z m70 -13 c11 -13 7 -15 -23 -15 -28 0 -35 3 -31
15 4 8 14 15 24 15 10 0 23 -7 30 -15z"/>
<path d="M1675 793 c4 -10 16 -40 26 -68 18 -49 18 -50 -1 -64 -25 -17 -26
-31 -1 -31 25 0 35 14 65 94 30 79 31 86 12 86 -7 0 -19 -20 -27 -47 l-13 -47
-19 47 c-11 26 -26 47 -34 47 -11 0 -13 -5 -8 -17z"/>
<path d="M2203 746 c29 -90 61 -84 66 12 2 25 21 1 21 -26 0 -55 41 -71 53
-20 3 13 10 40 15 61 8 29 7 37 -4 37 -8 0 -19 -20 -26 -47 l-12 -48 -11 45
c-14 58 -41 66 -51 16 -8 -45 -21 -46 -32 -4 -4 18 -16 34 -24 36 -15 3 -14
-5 5 -62z"/>
<path d="M2395 790 c-18 -19 -17 -20 1 -20 11 0 25 5 31 11 13 13 43 5 43 -10
0 -5 -18 -12 -40 -16 -27 -4 -41 -13 -45 -26 -11 -33 11 -48 69 -46 l53 1 -5
51 c-2 29 -11 55 -20 63 -24 18 -67 15 -87 -8z m63 -81 c-19 -13 -43 -6 -43
11 0 20 49 31 53 12 2 -8 -2 -19 -10 -23z"/>
<path d="M2530 744 c0 -49 3 -64 14 -64 11 0 16 14 18 48 2 38 7 49 26 57 33
15 27 22 -18 22 l-40 0 0 -63z"/>
<path d="M3030 790 c-40 -40 -11 -110 45 -110 32 0 65 33 65 65 0 32 -33 65
-65 65 -14 0 -34 -9 -45 -20z m70 -15 c15 -18 5 -64 -15 -72 -35 -13 -61 47
-33 75 16 16 33 15 48 -3z"/>
<path d="M3175 790 c-16 -18 -17 -20 -1 -20 9 0 25 6 36 12 15 10 22 10 32 0
15 -15 8 -22 -28 -28 -41 -7 -62 -30 -48 -52 8 -12 26 -17 66 -18 l55 -1 -5
46 c-2 25 -9 54 -14 64 -12 24 -70 23 -93 -3z m75 -59 c0 -21 -22 -33 -45 -24
-22 8 -13 26 16 34 13 4 25 7 27 8 1 1 2 -8 2 -18z"/>
<path d="M3410 744 c0 -50 3 -64 15 -64 10 0 14 12 13 46 0 29 4 49 13 55 25
16 34 3 37 -49 2 -37 7 -52 18 -52 10 0 14 13 14 49 0 35 4 51 16 55 26 10 34
-3 34 -55 0 -37 4 -49 15 -49 18 0 21 80 5 111 -11 20 -54 26 -65 9 -5 -7 -11
-8 -19 -1 -6 5 -31 10 -54 9 l-42 0 0 -64z"/>
<path d="M3635 790 c-18 -19 -17 -20 3 -20 12 0 22 5 22 10 0 11 33 14 43 4 8
-8 -3 -35 -13 -29 -16 10 -70 -17 -70 -35 0 -26 17 -34 78 -36 45 -1 52 1 48
15 -3 9 -6 33 -8 54 -3 57 -65 79 -103 37z m75 -64 c0 -19 -39 -31 -53 -17 -9
9 -8 14 3 21 22 14 50 12 50 -4z"/>
<path d="M3770 745 c0 -51 3 -65 15 -65 11 0 15 12 15 49 0 35 4 51 16 55 26
10 34 -3 34 -55 0 -38 4 -49 15 -49 13 0 15 11 13 56 -3 66 -23 88 -58 66 -12
-7 -20 -8 -20 -2 0 5 -7 10 -15 10 -12 0 -15 -14 -15 -65z"/>
<path d="M533 573 c-4 -10 -11 -22 -17 -26 -8 -6 -7 -10 2 -14 7 -3 12 -25 12
-59 0 -41 4 -54 15 -54 11 0 15 13 15 54 0 34 5 56 13 59 9 4 8 8 -3 16 -12 9
-12 11 3 17 9 3 14 10 11 15 -9 16 -44 10 -51 -8z"/>
<path d="M1120 505 c0 -69 3 -85 15 -85 12 0 15 14 15 62 l0 61 40 -61 c56
-88 70 -83 70 23 0 69 -3 85 -15 85 -12 0 -15 -14 -15 -62 l0 -61 -40 61 c-56
88 -70 83 -70 -23z"/>
<path d="M1800 505 c0 -69 3 -85 15 -85 10 0 15 11 15 35 0 35 0 35 45 35 50
0 72 23 59 63 -10 31 -22 37 -81 37 l-53 0 0 -85z m98 56 c8 -5 12 -17 10 -27
-2 -14 -13 -20 -41 -22 -35 -3 -37 -2 -37 27 0 27 3 31 28 31 15 0 33 -4 40
-9z"/>
<path d="M2200 580 c0 -5 7 -10 15 -10 8 0 15 5 15 10 0 6 -7 10 -15 10 -8 0
-15 -4 -15 -10z"/>
<path d="M2563 583 c-7 -3 -13 -11 -13 -18 0 -7 -6 -16 -12 -18 -10 -4 -10 -7
-1 -14 6 -5 13 -31 15 -58 3 -46 5 -50 31 -53 29 -4 37 12 12 22 -10 3 -15 19
-15 46 0 29 4 40 15 40 8 0 15 5 15 10 0 6 -6 10 -14 10 -8 0 -16 8 -18 18 -2
11 -9 17 -15 15z"/>
<path d="M600 484 c0 -49 3 -64 14 -64 11 0 16 14 18 47 2 38 8 50 26 59 28
14 19 21 -25 22 l-33 1 0 -65z"/>
<path d="M700 530 c-11 -11 -20 -31 -20 -45 0 -14 9 -34 20 -45 11 -11 31 -20
45 -20 14 0 34 9 45 20 11 11 20 31 20 45 0 14 -9 34 -20 45 -11 11 -31 20
-45 20 -14 0 -34 -9 -45 -20z m70 -14 c28 -34 -11 -94 -44 -67 -21 18 -20 57
2 70 23 14 28 13 42 -3z"/>
<path d="M830 485 c0 -51 3 -65 15 -65 11 0 15 12 15 49 0 35 4 51 16 55 26
10 34 -3 34 -55 0 -37 4 -49 15 -49 11 0 15 12 15 49 0 35 4 51 16 55 26 10
34 -3 34 -55 0 -37 4 -49 15 -49 19 0 21 100 3 118 -14 14 -54 16 -63 2 -4 -6
-13 -5 -25 3 -16 9 -24 9 -40 -1 -12 -7 -20 -8 -20 -2 0 5 -7 10 -15 10 -12 0
-15 -14 -15 -65z"/>
<path d="M1310 530 c-11 -11 -20 -31 -20 -45 0 -14 9 -34 20 -45 11 -11 31
-20 45 -20 14 0 34 9 45 20 11 11 20 31 20 45 0 14 -9 34 -20 45 -11 11 -31
20 -45 20 -14 0 -34 -9 -45 -20z m68 -12 c30 -30 -2 -93 -36 -71 -21 13 -27
50 -12 69 15 17 32 18 48 2z"/>
<path d="M1440 504 c0 -68 11 -82 65 -82 l45 1 0 64 c0 49 -3 63 -15 63 -10 0
-14 -12 -13 -46 0 -29 -4 -49 -13 -55 -25 -16 -34 -3 -37 49 -2 37 -7 52 -18
52 -10 0 -14 -12 -14 -46z"/>
<path d="M1580 485 c0 -51 3 -65 15 -65 11 0 15 12 15 49 0 35 4 51 16 55 26
10 34 -3 34 -55 0 -38 4 -49 15 -49 13 0 15 11 13 56 -3 66 -23 88 -58 66 -12
-7 -20 -8 -20 -2 0 5 -7 10 -15 10 -12 0 -15 -14 -15 -65z"/>
<path d="M1960 484 c0 -49 3 -64 14 -64 11 0 16 14 18 47 2 39 7 50 28 60 14
7 23 13 20 14 -3 1 -22 3 -42 4 l-38 4 0 -65z"/>
<path d="M2080 543 c-63 -23 -43 -123 25 -123 14 0 34 9 45 20 50 50 -2 127
-70 103z m48 -25 c32 -32 1 -89 -37 -68 -26 13 -28 55 -3 69 22 13 26 13 40
-1z"/>
<path d="M2200 471 c0 -54 -4 -81 -12 -84 -7 -2 -9 -8 -5 -13 4 -4 16 -3 25 2
24 16 31 174 7 174 -12 0 -15 -15 -15 -79z"/>
<path d="M2270 530 c-11 -11 -20 -31 -20 -45 0 -53 69 -85 105 -49 22 22 11
30 -20 14 -20 -11 -27 -11 -40 0 -26 21 -17 30 30 27 40 -2 45 0 45 19 0 48
-64 70 -100 34z m68 -17 c2 -9 -7 -13 -27 -13 -31 0 -42 14 -18 23 19 8 40 3
45 -10z"/>
<path d="M2410 530 c-41 -41 -13 -110 46 -110 19 0 54 28 54 43 0 13 -23 7
-35 -9 -18 -26 -57 -1 -53 33 4 34 35 54 51 33 16 -20 37 -23 37 -5 0 35 -69
46 -100 15z"/>
</g>
</svg>
